<svg width="100%" height="100%" viewBox="0 0 171 57" version="1.1" xmlns="http://www.w3.org/2000/svg" xmlns:xlink="http://www.w3.org/1999/xlink" xml:space="preserve" xmlns:serif="http://www.serif.com/" style="fill-rule:evenodd;clip-rule:evenodd;stroke-linecap:round;stroke-linejoin:round;stroke-miterlimit:1.5;"><path d="M127.559,1.835l-120.787,0c-0.979,0 -1.772,0.793 -1.772,1.771c0,8.169 0,42.147 0,50.315c0,0.979 0.793,1.772 1.772,1.772c15.042,0 120.787,0 120.787,0l0,-53.858Z" style="fill:none;stroke:#000;stroke-width:0.1px;"/><path d="M166.575,5.409c0,-1.422 -1.153,-2.574 -2.574,-2.574c-13.545,0 -77.315,0 -113.648,0c-6.766,0 -13.255,2.687 -18.039,7.471c-4.784,4.784 -7.471,11.273 -7.471,18.039c0,0.001 0,0.002 0,0.003c0,6.766 2.687,13.255 7.471,18.039c4.784,4.784 11.273,7.471 18.039,7.471c36.333,0 100.103,0 113.648,0c1.421,0 2.574,-1.152 2.574,-2.574c0,-8.729 0,-37.146 0,-45.875Zm-116.567,5.93c9.387,0 17.008,7.621 17.008,17.007c0,9.387 -7.621,17.008 -17.008,17.008c-9.387,0 -17.008,-7.621 -17.008,-17.008c0,-9.386 7.621,-17.007 17.008,-17.007Z" style="fill:#d7d7d9;stroke:#000;stroke-width:0.1px;"/></svg>
